<svg width="30" height="30" viewBox="0 0 30 30" fill="none" xmlns="http://www.w3.org/2000/svg">
<path d="M12.5875 3.52506L3.92503 10.4626C2.95003 11.2376 2.32503 12.8751 2.53753 14.1001L4.20003 24.0501C4.50003 25.8251 6.20003 27.2626 8.00003 27.2626H22C23.7875 27.2626 25.5 25.8126 25.8 24.0501L27.4625 14.1001C27.6625 12.8751 27.0375 11.2376 26.075 10.4626L17.4125 3.53756C16.075 2.46256 13.9125 2.46256 12.5875 3.52506Z" stroke="#0B1775" stroke-width="1.5" stroke-linecap="round" stroke-linejoin="round"/>
<path opacity="0.4" d="M15 19.375C15.8288 19.375 16.6237 19.0458 17.2097 18.4597C17.7958 17.8737 18.125 17.0788 18.125 16.25C18.125 15.4212 17.7958 14.6263 17.2097 14.0403C16.6237 13.4542 15.8288 13.125 15 13.125C14.1712 13.125 13.3763 13.4542 12.7903 14.0403C12.2042 14.6263 11.875 15.4212 11.875 16.25C11.875 17.0788 12.2042 17.8737 12.7903 18.4597C13.3763 19.0458 14.1712 19.375 15 19.375Z" stroke="#0A0C2B" stroke-opacity="0.5" stroke-width="1.5" stroke-linecap="round" stroke-linejoin="round"/>
</svg>
